# xmcd
#
# Track frame offsets: 
#        150
#        18573
#        37073
#        53884
#        75385
#        93971
#        109598
#        131719
#        151130
#        172553
#
# Disc length: 2522 seconds
#
# Revision: 0
# Processed by: cddbd v1.5.2PL0 Copyright (c) Steve Scherf et al.
# Submitted via: ExactAudioCopy v0.99pb3
#
DISCID=6c09d80a
DTITLE=Dr. 'Feelgood' Potts - Make It Talk
DYEAR=2004
DGENRE=Blues
TTITLE0=Make It Talk
TTITLE1=Mixed Up In Your Love
TTITLE2=Hard Working Lady
TTITLE3=Just What The Doctor Ordered
TTITLE4=All Blues Saturday
TTITLE5=All These Changes
TTITLE6=Blusin' And Cruisin'
TTITLE7=Red Onions
TTITLE8=I Love The Way You Slow Roll That Thing
TTITLE9=Aphrodisiac
EXTD=
EXTT0=
EXTT1=
EXTT2=
EXTT3=
EXTT4=
EXTT5=
EXTT6=
EXTT7=
EXTT8=
EXTT9=
PLAYORDER=
